# xmcd CD database file
#
# Track frame offsets:
#	150
#	12255
#	26405
#	38678
#	52503
#	72500
#	84098
#	96738
#	120163
#	136025
#	151740
#
# Disc length: 2192 seconds
#
# Revision: 0
# Processed by: cddbd v1.5PL3 Copyright (c) Steve Scherf et al.
# Submitted via: CDex 1.51
#
DISCID=73088e0b
DTITLE=MacKenzie, Dave - Rats In My Bedroom
DYEAR=1993
DGENRE=Blues
TTITLE0=Friday Night In Nashville
TTITLE1=Baby, Why'd You Change
TTITLE2=All Washed Up
TTITLE3=Mardi Gras Starts Tomorrow
TTITLE4=Rats In My Bedroom
TTITLE5=When I'm In Dixie
TTITLE6=Hey, Fannie Mae
TTITLE7=If Jesus Comes Back (As A Mexican Man)
TTITLE8=Big Ol' Girls
TTITLE9=I Need Some Now
TTITLE10=Get Right With God
EXTD=YEAR: 1993
EXTT0=
EXTT1=
EXTT2=
EXTT3=
EXTT4=
EXTT5=
EXTT6=
EXTT7=
EXTT8=
EXTT9=
EXTT10=
PLAYORDER=
